<?xml version="1.0" ?><svg height="32px" version="1.1" viewBox="0 0 32 32" width="32px" xmlns="http://www.w3.org/2000/svg" xmlns:sketch="http://www.bohemiancoding.com/sketch/ns" xmlns:xlink="http://www.w3.org/1999/xlink"><title/><desc/><defs/><g fill="none" fill-rule="evenodd" id="Page-1" stroke="none" stroke-width="1"><g fill="#CCCCCC" id="icon-1-flashed-face"><path d="M16.5,29 C23.4035597,29 29,23.4035597 29,16.5 C29,9.59644029 23.4035597,4 16.5,4 C9.59644029,4 4,9.59644029 4,16.5 C4,23.4035597 9.59644029,29 16.5,29 Z M12,16 C13.6568543,16 15,14.6568543 15,13 C15,11.3431457 13.6568543,10 12,10 C10.3431457,10 9,11.3431457 9,13 C9,14.6568543 10.3431457,16 12,16 Z M12,15 C13.1045696,15 14,14.1045696 14,13 C14,11.8954304 13.1045696,11 12,11 C10.8954304,11 10,11.8954304 10,13 C10,14.1045696 10.8954304,15 12,15 Z M21,16 C22.6568543,16 24,14.6568543 24,13 C24,11.3431457 22.6568543,10 21,10 C19.3431457,10 18,11.3431457 18,13 C18,14.6568543 19.3431457,16 21,16 Z M21,15 C22.1045696,15 23,14.1045696 23,13 C23,11.8954304 22.1045696,11 21,11 C19.8954304,11 19,11.8954304 19,13 C19,14.1045696 19.8954304,15 21,15 Z M12,14 C12.5522848,14 13,13.5522848 13,13 C13,12.4477152 12.5522848,12 12,12 C11.4477152,12 11,12.4477152 11,13 C11,13.5522848 11.4477152,14 12,14 Z M21,14 C21.5522848,14 22,13.5522848 22,13 C22,12.4477152 21.5522848,12 21,12 C20.4477152,12 20,12.4477152 20,13 C20,13.5522848 20.4477152,14 21,14 Z M14,21 L14,22 L19,22 L19,21 L14,21 Z" id="flashed-face"/></g></g></svg>